<?xml version="1.0" encoding="UTF-8" standalone="no"?> <svg width="64" height="64" viewBox="0 0 64 64" fill="none" xmlns="http://www.w3.org/2000/svg">
<path d="M56.84 53.85C56.7033 54.0502 56.5199 54.2141 56.3055 54.3274C56.0912 54.4406 55.8524 54.4999 55.61 54.5H8.39001C8.14758 54.4999 7.90883 54.4406 7.69449 54.3274C7.48015 54.2141 7.29668 54.0502 7.16001 53.85C7.02404 53.6499 6.93848 53.4199 6.91062 53.1796C6.88276 52.9393 6.91343 52.6959 7.00001 52.47L11.22 41.29L14.1 33.67L17.57 24.48L20.44 16.86L24.52 6.06C24.9175 5.01728 25.6212 4.11923 26.5386 3.48385C27.456 2.84847 28.5441 2.50549 29.66 2.5H34.34C35.4576 2.50348 36.548 2.84551 37.4673 3.48103C38.3867 4.11654 39.0919 5.0157 39.49 6.06L43.57 16.86L46.44 24.48L49.91 33.67L52.79 41.29L57 52.47C57.0866 52.6959 57.1173 52.9393 57.0894 53.1796C57.0615 53.4199 56.976 53.6499 56.84 53.85Z" fill="#F8B64C"/>
<path d="M58.71 51.5H5.29C3.74913 51.5 2.5 52.7491 2.5 54.29V58.71C2.5 60.2509 3.74913 61.5 5.29 61.5H58.71C60.2509 61.5 61.5 60.2509 61.5 58.71V54.29C61.5 52.7491 60.2509 51.5 58.71 51.5Z" fill="#FFD164"/>
<path d="M52.79 41.2899H11.21L14.09 33.6699H49.91L52.79 41.2899Z" fill="#FFD164"/>
<path d="M46.4401 24.4801H17.5601L20.4301 16.8601H43.5701L46.4401 24.4801Z" fill="#FFD164"/>
</svg>
